<?xml version="1.0" encoding="utf-8"?>
<!-- Generator: Adobe Illustrator 18.1.1, SVG Export Plug-In . SVG Version: 6.00 Build 0)  -->
<svg version="1.1" id="图层_1" xmlns="http://www.w3.org/2000/svg" xmlns:xlink="http://www.w3.org/1999/xlink" x="0px" y="0px"
	 viewBox="0 595.3 612 196.7" enable-background="new 0 595.3 612 196.7" xml:space="preserve">
<path fill="#CB1818" d="M71.8,595.6c3.7,7.1,8.4,13.2,14.4,18.4c6.2,5.2,12,10.8,17.5,16.7c2.3,2.4,4.2,5,5.2,8.3
	c0.4,1.2,0.8,2.4,1.6,3.4c1,1.4,2.2,1.6,3.5,0.5c0.7-0.5,1.1-1.1,1.6-1.8c2.1-2.5,3.9-5.3,5.7-8c0.2-0.2,0.4-0.6,0.7-1
	c0.7,1.7,0.9,3.4,1.3,4.9c1.8,7.7,2,15.5,1.1,23.4c-0.5,4.4-0.9,8.9-1.4,13.4c-0.1,0.5-0.1,0.9,0.7,0.9c6.6,0.3,13.2,0.3,19.6-1.5
	c3.3-0.9,6.4-2.3,9.8-3c5.7-1.2,11.5-2,17.3-2.5c4.8-0.4,9.6-0.6,14.4-0.8c3.3-0.2,6.4-1,9.3-2.6c0.3-0.2,0.7-0.3,1-0.4
	c0.6-0.2,1.2,0,1.6,0.5c0.4,0.5-0.1,0.9-0.3,1.3c-1.9,3-4.3,5.4-6.4,8c-6.8,8.3-13.9,16.3-21.9,23.5c-4.1,3.8-8.4,7.2-13.6,9.6
	c-1.4,0.7-2.8,1.5-4,2.4c-1.4,1-1.6,2.1-0.7,3.5c1.6,2.5,3.6,4.8,5.4,7.1c2.8,3.7,5.6,7.5,8.4,11.2c1.2,1.6,1.9,3.5,2.5,5.4
	c0.2,0.7,0,1-0.7,1c-1.1,0.1-2.2-0.2-3.3-0.5c-16.2-5.6-32.6-11.2-48.9-16.7c-1.1-0.4-2.2-0.7-3.3-1c-1.5-0.3-2.3,0.3-2.4,1.8
	c-0.2,1.8,0.2,3.5,0.5,5.2c1.2,7.5,1.6,15,1.1,22.6c-0.4,6.5-1.3,12.9-2.1,19.4c-0.7,4.7-1,9.3-1.5,14.1c-0.2,2.3-0.5,4.6-0.7,7
	c-0.2,1.1-0.6,2.1-1.6,2.5c-1.1,0.4-2.1,0-3-0.8c-1-1-1.8-2.1-2.4-3.4c-0.6-1.4-0.7-2.7-0.2-4.2c2.4-7.5,4.3-14.9,5.5-22.7
	c1.1-7.2,1.1-14.4,1-21.7c-0.2-5.1-0.3-10.2-0.5-15.3c0-1.2-0.7-2.1-1.1-3.1c-0.2-0.3-0.4-0.2-0.7-0.1c-1,0.3-1.8,0.8-2.5,1.6
	c-5.4,6.7-12.5,11.2-20.1,15.2c-6.2,3.3-12.9,5.3-19.4,7.7c-3.5,1.3-7.1,2.5-10.7,3.8c-0.9,0.3-1.9,0.4-2.8,0.5
	c-0.8,0.1-1.3-0.9-0.9-1.6c4.7-8.4,9.4-16.9,14.1-25.3c1.1-1.9,0.5-3.2-1.6-3.9c-4.1-1.5-8.4-2.2-12.6-3.4
	c-8.4-2.2-16.8-4.3-24.9-7.5c-7.1-2.8-13.8-6-19.8-10.8c-0.2-0.1-0.2-0.3-0.5-0.2c0-0.5,0-0.9,0-1.4c0.7-0.3,1.5-0.3,2.2-0.2
	c2.5,0.2,5,0.8,7.6,1c5.1,0.2,10-0.2,14.6-2.7c2.5-1.5,5.3-2.5,8.2-3.3c8.3-2.1,16.8-2.7,25.3-2.9c5.5-0.1,11,0,16.4-0.1
	c1.2,0,2.5-0.1,3.6-0.5c0.2-0.1,0.7,0,0.7-0.4c0-0.3-0.3-0.4-0.5-0.6c-1.3-1.1-2.7-2.1-4-3.2c-3.8-3-7.6-5.9-11.5-8.9
	c-0.5-0.3-1-0.7-0.7-1.4s0.8-1,1.6-0.8c0.2,0,0.4,0.1,0.6,0.1c0.9,0.2,1.9,0.6,2.8,0.8c1.2,0.4,2.4,0.7,3.7,0.4
	c2.3-0.3,2.6-1.1,1.3-2.9c-0.1-0.1-0.1-0.2-0.2-0.2c-3.7-5.2-7.4-10.3-11.1-15.4c-0.7-1-0.7-1.3,0.3-1.6c4.6-1.5,6.9-4.8,7.9-9.4
	c0.6-2.9,0.7-5.7,1.1-8.6c0.6-4.1,1.1-8.2,1.1-12.3c0-8.2-0.2-16.4-0.2-24.6c0-0.7,0-1.5,0.4-2.2C71.6,595.6,71.7,595.6,71.8,595.6z
	"/>
<path fill="#A5241A" d="M480.4,681.7c1.4-1.5,2.6-2.9,4-4c3.7-3.3,8-5.2,13-5.1c5.7,0.2,10.2,2.3,12.5,7.8c0.2,0.5,0.4,1.1,0.6,1.6
	c0.4-0.2,0.6-0.5,0.8-0.7c2.1-2.4,4.3-4.6,7.1-6.2c5.3-3,10.8-3.3,16.5-1c3.9,1.6,5.8,5,6.8,8.9c0.7,2.8,0.8,5.7,0.8,8.5
	c-0.1,9.4,0.1,18.9,0.2,28.4c0,0.8,0.1,1.2,1.1,1.2c1.2,0,2.5,0.2,3.7,0.3c0.5,0,0.7,0.2,0.7,0.7c0.1,2.2,0.1,2.2-2.1,2.2
	c-7.6,0-15.3,0-22.8,0c-0.9,0-1.1-0.2-1.1-1.1c0.1-1.7,0-1.7,1.8-2c1-0.1,2.1-0.2,3-0.3c0.5,0,0.7-0.2,0.7-0.7
	c0.2-10.7,0.2-21.3,0.2-32c0-1.3-0.2-2.5-0.5-3.8c-0.9-3.9-3.4-5.5-7.2-4.8c-3.5,0.6-6.2,2.7-8.7,5.1c-0.2,0.2-0.2,0.4-0.2,0.7
	c0.2,1.9,0.3,3.9,0.3,5.8c0,9.5,0,19.1,0.2,28.6c0,0.9,0.3,1.2,1.1,1.2c1.1,0,2.1,0.2,3.1,0.2c0.7,0,1,0.2,1,1c0,2,0,2-2,2
	c-7.6,0-15.3,0-22.8,0c-0.9,0-1.3-0.2-1.2-1.2c0.1-1.6,0-1.6,1.7-1.8c1.1-0.1,2.1-0.3,3.1-0.3c0.8,0,1.1-0.2,1.1-1.1
	c0-5.7,0.1-11.3,0.2-17.1c0-4.6,0-9.2,0-13.8c0-1.4-0.2-2.8-0.4-4.1c-0.9-4.4-3.8-6.3-8.1-5.1c-3,0.8-5.3,2.7-7.6,4.8
	c-0.3,0.2-0.2,0.6-0.2,0.9c0,11.6-0.1,23.1,0.2,34.6c0,0.6,0.2,0.9,0.8,0.9c1.2,0.1,2.4,0.2,3.6,0.2c0.6,0,0.8,0.2,0.8,0.8
	c0,2.1,0.1,2.1-2.1,2.1c-7.9,0-15.7,0-23.5,0c-0.8,0-1-0.2-1-1c0.1-1.9,0-1.9,1.9-2.1c1.1-0.1,2.3-0.2,3.4-0.3c0.7,0,0.9-0.2,0.9-1
	c0.1-10.7,0.2-21.5,0.1-32.2c0-1.9-0.2-3.8-0.2-5.7c0-0.7-0.2-0.9-0.9-0.9c-1.7-0.2-3.5-0.4-5.2-0.6c-0.6-0.1-0.7-0.2-0.7-0.8
	c-0.1-1.1,0.2-1.5,1.3-1.8c6-1.6,12-3.4,18-5.2c1.1-0.3,2,0.3,2.1,1.5C480,676.8,480.1,679.2,480.4,681.7z"/>
<path fill="#A5241A" d="M574.4,681.7c1.7-2,3.4-3.6,5.3-5.1c4.3-3.3,9.2-4.5,14.5-3.8c5.7,0.7,9.8,4.7,11.2,10.7
	c0.6,2.3,0.7,4.6,0.7,6.9c0,9.8-0.1,19.7,0.2,29.5c0,0.7,0.2,1.1,1,1.1c1.2,0,2.5,0.2,3.7,0.2c0.6,0,0.8,0.2,0.8,0.8
	c0,2.1,0,2.1-2.1,2.1c-7.9,0-15.7,0-23.5,0c-0.8,0-1.1-0.2-1.1-1.1c0.1-1.8,0-1.8,1.7-2c1.1-0.1,2.2-0.2,3.4-0.3
	c0.6,0,0.7-0.2,0.7-0.7c0.2-10.9,0.2-21.8,0.2-32.6c0-1.3-0.2-2.6-0.6-3.9c-0.9-3-3.2-4.5-6.3-4.2c-2.5,0.2-4.6,1.3-6.6,2.7
	c-3.2,2.2-3.3,2.2-3.2,6c0,10.6-0.1,21.2,0.2,31.7c0,0.9,0.2,1.2,1.1,1.2c1.1,0,2.2,0.2,3.4,0.2c0.6,0,0.8,0.2,0.8,0.8
	c0,2.1,0.1,2.1-2.1,2.1c-7.9,0-15.7,0-23.5,0c-0.8,0-1-0.2-1-1c0.1-1.9,0-1.9,1.8-2.1c1.2-0.1,2.5-0.2,3.7-0.3
	c0.6,0,0.7-0.2,0.7-0.7c0.1-12.7,0.3-25.3-0.1-38.1c0-0.6-0.2-0.7-0.8-0.8c-1.7-0.2-3.5-0.3-5.2-0.6c-0.4-0.1-1,0-0.8-0.7
	c0.2-0.7-0.6-1.6,0.6-1.9c6.2-1.8,12.5-3.6,18.8-5.4c0.8-0.2,1.8,0.5,1.9,1.3C574,676.7,574.2,679,574.4,681.7z"/>
<path fill="#A5241A" d="M332.3,716.5c-2.2,2.6-4.5,4.8-7.2,6.5c-3.9,2.5-8.2,3.4-12.9,2.7c-5.7-0.8-9.4-4.4-10.9-10.4
	c-0.7-2.7-0.8-5.4-0.8-8.2c0.2-8.8,0.2-17.5,0.4-26.2c0-0.9-0.2-1.1-1.1-1.3c-1.6-0.2-3.1-0.7-4.6-0.9c-0.6-0.1-0.8-0.3-0.8-0.9
	c0-1.7,0-1.7,1.7-2c6-0.8,12-1.6,18-2.5c1.1-0.2,1.9,0.6,1.9,1.6c-0.6,11.1-0.6,22.1-0.6,33.2c0,1.6,0.1,3.1,0.5,4.7
	c1,3.6,3.4,5.4,7.2,5.2c3.4-0.2,6.2-1.8,8.7-4.1c0.4-0.3,0.3-0.7,0.3-1.1c0.1-9.4,0.2-18.8,0.3-28.2c0-1.4,0-2.8,0.1-4.1
	c0-0.6-0.2-0.8-0.7-0.9c-1.6-0.2-3.2-0.7-4.8-0.9c-1.1-0.2-0.5-1-0.6-1.5s0.1-0.7,0.7-0.8c6.3-1,12.5-2.1,18.8-3
	c0.9-0.2,1.7,0.7,1.6,1.7c-0.6,15-0.3,30-0.4,45c0,1,0.2,1.3,1.2,1.4c1.3,0,2.5,0.2,3.9,0.2c0.6,0,0.7,0.2,0.7,0.7
	c0.1,2.1,0.1,2.1-2.1,2.2c-5.7,0.3-11.5,0.7-17.3,1.1c-0.7,0.1-0.9-0.2-0.9-0.8c-0.1-2.1-0.2-4.3-0.3-6.4
	C332.4,717.9,332.3,717.3,332.3,716.5z"/>
<path fill="#A5241A" d="M432.9,716.6c-0.6,0.7-1.1,1.2-1.6,1.7c-3.4,3.6-7.3,6.4-12.3,7.3c-3,0.6-6,0.4-8.9-0.6
	c-4.7-1.6-7.1-5.2-8.2-9.8c-0.7-2.7-0.8-5.4-0.8-8.2c0.2-8.8,0.2-17.5,0.4-26.2c0-0.9-0.2-1.1-1.1-1.3c-1.6-0.2-3.1-0.7-4.8-0.9
	c-0.5-0.1-0.7-0.3-0.7-0.8c0-1.8,0-1.8,1.7-2.1c6-0.8,12-1.6,18-2.5c1.1-0.2,1.9,0.6,1.9,1.6c-0.6,11.1-0.6,22.1-0.6,33.2
	c0,1.6,0.1,3.1,0.5,4.7c1,3.6,3.4,5.4,7.2,5.2c3.4-0.2,6.2-1.8,8.7-4.1c0.4-0.3,0.3-0.7,0.3-1.1c0.1-9.4,0.2-18.8,0.3-28.2
	c0-1.4,0-2.8,0.1-4.1c0-0.6-0.2-0.8-0.7-0.9c-1.6-0.2-3.2-0.7-4.8-0.9c-1.1-0.2-0.5-1-0.6-1.5s0.1-0.7,0.7-0.8
	c6.3-1,12.5-2.1,18.8-3c0.9-0.2,1.7,0.7,1.6,1.7c-0.6,15-0.3,30-0.4,45c0,1,0.3,1.3,1.2,1.4c1.3,0,2.5,0.2,3.9,0.2
	c0.6,0,0.7,0.2,0.7,0.7c-0.1,2.5,0.4,2.1-2,2.2c-5.8,0.3-11.6,0.7-17.4,1.1c-0.7,0.1-0.9-0.2-0.9-0.8c-0.1-2.1-0.2-4.3-0.3-6.4
	C433,717.9,433,717.3,432.9,716.6z"/>
<path fill="#A5241A" d="M275.3,724.4c-4.9,0-9.8,0-14.7,0c-0.7,0-1-0.2-1-1c0.1-2.2,0-2.2,2.3-2.5c1.7-0.2,3.4-0.4,5.2-0.6
	c0.6-0.1,0.7-0.2,0.6-0.7c-1.7-5.5-3.5-11-5.2-16.5c-0.2-0.7-0.6-0.6-1.1-0.6c-5.3,0-10.7,0-15.9,0c-1.1,0-2.4,0-3.5,0
	c-0.6,0-0.8,0.2-1,0.7c-1.6,5.3-3,10.7-4.7,16c-0.2,0.7,0.1,0.7,0.6,0.8c2.4,0.3,4.7,0.7,7.1,1c0.7,0.1,0.8,0.3,0.8,1
	c0,2.3,0,2.3-2.3,2.3c-6,0-12,0-17.9,0c-0.7,0-0.9-0.2-0.9-0.9c0-2.1,0-2.2,2.1-2.5c1.6-0.2,3.1-0.6,4.7-0.7c0.8-0.1,1-0.5,1.2-1.1
	c3.4-10.7,6.8-21.3,10.3-32c3.3-10.3,6.6-20.6,9.8-30.8c0.2-0.7,0.5-0.9,1.2-0.9c2.6,0.1,5.2,0.1,7.8,0c0.7,0,1,0.2,1.2,0.9
	c5.6,16.5,11.2,33,16.7,49.5c1.6,4.6,3.1,9.2,4.7,13.9c0.2,0.6,0.4,0.8,1.1,0.9c2,0.2,3.9,0.5,5.8,0.7c0.6,0.1,0.7,0.2,0.7,0.8
	c0,2.4,0,2.4-2.3,2.4C284.3,724.4,279.8,724.4,275.3,724.4z M242.1,699.3c6.4,0,12.7,0,19.1,0c-3.3-10.4-6.6-20.7-9.9-31.2"/>
<path fill="#A5241A" d="M379.2,696.5c0,5.2,0,10.4,0,15.7c0,1,0,2,0.2,3c0.8,4.4,4.6,5.2,7.4,4.4c1.6-0.4,2.9-1.2,4.1-2.3
	c0.3-0.3,0.7-0.6,1,0c0.3,0.5,1.5,0.6,0.8,1.6c-2.5,4.1-6.3,6.2-10.9,6.8c-2.7,0.3-5.3,0.3-8-0.3c-5.4-1.3-8.6-4.9-9.3-10.4
	c-0.5-4.4-0.2-8.9-0.2-13.3c0-7.6,0-15.3,0-23c0-0.7-0.2-0.9-0.9-0.9c-1.9,0.1-3.8,0-5.7,0c-0.7,0-0.9-0.2-0.9-0.9
	c0-2.1,0-2.1,2.1-2.3c1.7-0.2,3.4-0.4,5.1-0.6c0.8-0.1,1.1-0.4,1.4-1.1c1.4-4.3,2.8-8.6,4.2-12.9c0.2-0.6,0.4-0.8,1.1-0.8
	c2.6,0.1,5.2,0,7.9,0c0.7,0,0.8,0.2,0.8,0.8c-0.1,4.3-0.1,8.7-0.2,13.1c0,0.7,0.2,0.9,0.9,0.9c3.2,0,6.4,0,9.7,0
	c0.7,0,0.9,0.2,0.8,0.8c-0.1,0.9,0.3,2.1-0.2,2.8c-0.5,0.7-1.8,0.2-2.7,0.2c-2.5,0-5.1,0-7.5,0c-0.7,0-0.9,0.2-0.9,1
	C379.2,684.8,379.2,690.7,379.2,696.5z"/>
</svg>
