<?xml version="1.0" encoding="utf-8"?>
<!-- Generator: Adobe Illustrator 18.1.1, SVG Export Plug-In . SVG Version: 6.00 Build 0)  -->
<svg version="1.1" id="图层_1" xmlns="http://www.w3.org/2000/svg" xmlns:xlink="http://www.w3.org/1999/xlink" x="0px" y="0px"
	 viewBox="0.3 388 611.2 610.9" enable-background="new 0.3 388 611.2 610.9" xml:space="preserve">
<path fill="#CB1818" d="M351.7,776c-3.4-1.2-6.8-2.2-10.3-3.1c-4.7-0.9-7.1,0.9-7.5,5.6c-0.6,5.6,0.6,10.9,1.6,16.2
	c3.7,23.3,5,46.6,3.4,70.2c-1.2,20.2-4,40.1-6.5,60.3c-2.2,14.6-3.1,28.9-4.7,43.8c-0.6,7.1-1.6,14.3-2.2,21.7
	c-0.6,3.4-1.9,6.5-5,7.8c-3.4,1.2-6.5,0-9.3-2.5c-3.1-3.1-5.6-6.5-7.5-10.6c-1.9-4.3-2.2-8.4-0.6-13c7.5-23.3,13.4-46.3,17.1-70.5
	c3.4-22.4,3.4-44.7,3.1-67.4c-0.6-15.8-0.9-31.7-1.6-47.5c0-3.7-2.2-6.5-3.4-9.6c-0.6-0.9-1.2-0.6-2.2-0.3c-3.1,0.9-5.6,2.5-7.8,5
	c-16.8,20.8-38.8,34.8-62.4,47.2c-19.3,10.3-40.1,16.5-60.3,23.9c-10.9,4-22.1,7.8-33.2,11.8c-2.8,0.9-5.9,1.2-8.7,1.6
	c-2.5,0.3-4-2.8-2.8-5c14.6-26.1,29.2-52.5,43.8-78.6c3.4-5.9,1.6-9.9-5-12.1c-12.7-4.7-26.1-6.8-39.1-10.6
	c-26.1-6.8-52.2-13.4-77.4-23.3c-22.1-8.7-42.9-18.6-61.5-33.6c-0.6-0.3-0.6-0.9-1.6-0.6c0-1.6,0-2.8,0-4.3c2.2-0.9,4.7-0.9,6.8-0.6
	c7.8,0.6,15.5,2.5,23.6,3.1c15.8,0.6,31.1-0.6,45.4-8.4c7.8-4.7,16.5-7.8,25.5-10.3c25.8-6.5,52.2-8.4,78.6-9
	c17.1-0.3,34.2,0,50.9-0.3c3.7,0,7.8-0.3,11.2-1.6c0.6-0.3,2.2,0,2.2-1.2c0-0.9-0.9-1.2-1.6-1.9c-4-3.4-8.4-6.5-12.4-9.9
	c-11.8-9.3-23.6-18.3-35.7-27.6c-1.6-0.9-3.1-2.2-2.2-4.3c0.9-2.2,2.5-3.1,5-2.5c0.6,0,1.2,0.3,1.9,0.3c2.8,0.6,5.9,1.9,8.7,2.5
	c3.7,1.2,7.5,2.2,11.5,1.2c7.1-0.9,8.1-3.4,4-9c-0.3-0.3-0.3-0.6-0.6-0.6c-11.5-16.2-23-32-34.5-47.8c-2.2-3.1-2.2-4,0.9-5
	c14.3-4.7,21.4-14.9,24.5-29.2c1.9-9,2.2-17.7,3.4-26.7c1.9-12.7,3.4-25.5,3.4-38.2c0-25.5-0.6-50.9-0.6-76.4c0-2.2,0-4.7,1.2-6.8
	c0.9,0.9,1.2,0.9,1.6,0.9c11.5,22.1,26.1,41,44.7,57.2c19.3,16.2,37.3,33.6,54.4,51.9c7.1,7.5,13,15.5,16.2,25.8
	c1.2,3.7,2.5,7.5,5,10.6c3.1,4.3,6.8,5,10.9,1.6c2.2-1.6,3.4-3.4,5-5.6c6.5-7.8,12.1-16.5,17.7-24.9c0.6-0.6,1.2-1.9,2.2-3.1
	c2.2,5.3,2.8,10.6,4,15.2c5.6,23.9,6.2,48.2,3.4,72.7c-1.6,13.7-2.8,27.6-4.3,41.6c-0.3,1.6-0.3,2.8,2.2,2.8
	c20.5,0.9,41,0.9,60.9-4.7c10.3-2.8,19.9-7.1,30.4-9.3c17.7-3.7,35.7-6.2,53.7-7.8c14.9-1.2,29.8-1.9,44.7-2.5
	c10.3-0.6,19.9-3.1,28.9-8.1c0.9-0.6,2.2-0.9,3.1-1.2c1.9-0.6,3.7,0,5,1.6c1.2,1.6-0.3,2.8-0.9,4c-5.9,9.3-13.4,16.8-19.9,24.9
	c-21.1,25.8-43.2,50.6-68,73c-12.7,11.8-26.1,22.4-42.2,29.8c-4.3,2.2-8.7,4.7-12.4,7.5c-4.3,3.1-5,6.5-2.2,10.9
	c5,7.8,11.2,14.9,16.8,22.1c8.7,11.5,17.4,23.3,26.1,34.8c3.7,5,5.9,10.9,7.8,16.8c0.6,2.2,0,3.1-2.2,3.1c-3.4,0.3-6.8-0.6-10.3-1.6
	"/>
</svg>
