<?xml version="1.0" encoding="utf-8"?>
<!-- Generator: Adobe Illustrator 18.1.1, SVG Export Plug-In . SVG Version: 6.00 Build 0)  -->
<svg version="1.1" id="图层_1" xmlns="http://www.w3.org/2000/svg" xmlns:xlink="http://www.w3.org/1999/xlink" x="0px" y="0px"
	 viewBox="0 322.3 612 147.1" enable-background="new 0 322.3 612 147.1" xml:space="preserve">
<g>
	<path fill="#CB1818" d="M53.8,322.5c2.8,5.3,6.3,9.9,10.8,13.8c4.6,3.9,9,8.1,13.1,12.5c1.7,1.8,3.1,3.6,3.7,6c0.3,1,0.7,2,1.3,2.8
		c0.7,1,1.7,1.2,2.6,0.4c0.5-0.4,0.9-0.9,1.2-1.4c1.5-1.9,2.9-4,4.3-6c0.1-0.2,0.3-0.4,0.6-0.7c0.5,1.3,0.7,2.5,1,3.7
		c1.4,5.8,1.5,11.6,0.8,17.5c-0.4,3.3-0.7,6.7-1,10c-0.1,0.4-0.1,0.7,0.5,0.7c5.1,0.3,10.2,0.2,15.2-1.3c2.5-0.7,4.9-1.8,7.5-2.3
		c4.1-0.8,8.1-1.4,12.2-1.7c3.6-0.3,7.2-0.4,10.8-0.6c2.5-0.1,4.8-0.7,6.9-2c0.2-0.1,0.5-0.2,0.7-0.3c0.4-0.1,0.9,0,1.2,0.4
		c0.3,0.4-0.1,0.7-0.2,1c-1.4,2.2-3.2,4.1-4.8,6c-5.1,6.2-10.4,12.2-16.4,17.6c-3.1,2.8-6.3,5.4-10.2,7.2c-1,0.5-2.1,1.1-3,1.8
		c-1,0.7-1.2,1.5-0.6,2.6c1.2,1.9,2.7,3.6,4.1,5.3c2.1,2.8,4.2,5.6,6.3,8.3c0.9,1.2,1.4,2.6,1.8,4.1c0.1,0.5,0,0.7-0.6,0.7
		c-0.9,0.1-1.7-0.1-2.5-0.4c-12.2-4.2-24.4-8.3-36.6-12.5c-0.8-0.3-1.7-0.5-2.5-0.7c-1.1-0.2-1.7,0.2-1.8,1.4
		c-0.1,1.4,0.2,2.6,0.4,3.9c0.9,5.6,1.2,11.2,0.9,16.9c-0.3,4.8-1,9.6-1.6,14.5c-0.5,3.5-0.7,7-1.1,10.6c-0.2,1.7-0.4,3.4-0.6,5.2
		c-0.1,0.8-0.4,1.5-1.2,1.8c-0.8,0.3-1.6,0-2.2-0.6c-0.7-0.7-1.4-1.5-1.8-2.5c-0.4-1-0.5-2-0.2-3.1c1.8-5.6,3.3-11.2,4.1-17
		c0.8-5.4,0.9-10.8,0.7-16.2c-0.1-3.8-0.2-7.6-0.4-11.4c0-0.9-0.5-1.6-0.9-2.3c-0.1-0.2-0.3-0.1-0.5-0.1c-0.7,0.2-1.4,0.6-1.8,1.2
		c-4.1,5-9.4,8.4-15,11.4c-4.7,2.5-9.6,4-14.5,5.8c-2.6,1-5.3,1.8-8,2.8c-0.7,0.2-1.4,0.3-2.1,0.4c-0.6,0.1-1-0.7-0.7-1.2
		c3.5-6.3,7.1-12.6,10.6-19c0.8-1.4,0.4-2.4-1.2-2.9c-3.1-1.1-6.3-1.7-9.5-2.5c-6.3-1.7-12.6-3.2-18.6-5.6
		c-5.3-2.1-10.3-4.5-14.8-8.1c-0.1-0.1-0.2-0.2-0.4-0.1c0-0.4,0-0.7,0-1c0.6-0.2,1.1-0.2,1.7-0.2c1.9,0.1,3.7,0.6,5.7,0.7
		c3.8,0.2,7.5-0.1,10.9-2c1.9-1.1,4-1.9,6.1-2.5c6.2-1.6,12.6-2,19-2.1c4.1-0.1,8.2,0,12.3-0.1c0.9,0,1.8-0.1,2.7-0.4
		c0.2-0.1,0.5,0,0.6-0.3c0-0.2-0.2-0.3-0.4-0.4c-1-0.8-2-1.6-3-2.4c-2.8-2.2-5.7-4.4-8.6-6.6c-0.4-0.2-0.7-0.5-0.5-1
		c0.2-0.6,0.6-0.7,1.2-0.6c0.1,0,0.3,0.1,0.4,0.1c0.7,0.2,1.4,0.4,2.1,0.6c0.9,0.3,1.8,0.5,2.8,0.3c1.7-0.2,2-0.8,1-2.1
		c-0.1-0.1-0.1-0.1-0.1-0.2c-2.8-3.9-5.5-7.7-8.3-11.5c-0.6-0.7-0.6-1,0.2-1.2c3.4-1.1,5.2-3.6,5.9-7.1c0.4-2.1,0.5-4.3,0.8-6.4
		c0.4-3.1,0.8-6.1,0.8-9.2c0-6.1-0.1-12.3-0.2-18.4c0-0.6,0-1.1,0.3-1.7C53.6,322.5,53.6,322.5,53.8,322.5z"/>
	<path fill="#A5241A" d="M359.5,387c0.5-0.6,0.9-1,1.4-1.5c2.2-2.3,4.7-4.2,7.9-5c2.3-0.5,4.5-0.5,6.8,0.1c3.1,0.9,5,2.9,6.1,5.8
		c0.1,0.2,0.2,0.5,0.2,0.7c0,0,0.1,0.1,0.1,0.1c0.2-0.2,0.4-0.4,0.5-0.6c1.4-1.5,2.8-3,4.5-4.2c3.9-2.6,8.1-2.9,12.5-1.5
		c3.3,1.1,4.9,3.7,5.7,6.9c0.6,2.1,0.6,4.2,0.6,6.3c-0.1,7.1,0.1,14.2,0.1,21.3c0,0.6,0.1,0.9,0.8,0.9c1,0,1.9,0.2,2.9,0.2
		c0.4,0,0.5,0.1,0.5,0.6c0.1,1.7,0.1,1.7-1.6,1.7c-5.7,0-11.4,0-17.2,0c-0.6,0-0.7-0.1-0.7-0.7c0.1-1.4,0-1.4,1.4-1.5
		c0.7-0.1,1.4-0.2,2.1-0.2c0.5,0,0.7-0.2,0.7-0.7c0-3.4,0.1-6.8,0.1-10.1c0-4.4,0-8.7,0-13.1c0-1.2-0.1-2.3-0.4-3.4
		c-0.6-3-2.6-4.1-5.5-3.6c-2.6,0.4-4.5,2-6.4,3.7c-0.2,0.1-0.2,0.3-0.2,0.6c0.2,1.7,0.2,3.3,0.2,4.9c0,6.9,0,13.9,0.1,20.7
		c0,0.8,0.3,1,1,1c0.8,0,1.6,0.1,2.4,0.2c0.4,0,0.5,0.1,0.5,0.6c0.1,1.7,0.1,1.7-1.5,1.7c-5.8,0-11.5,0-17.2,0
		c-0.6,0-0.7-0.1-0.7-0.7c0.1-1.4,0-1.4,1.4-1.5c0.8-0.1,1.5-0.2,2.3-0.2c0.6,0,0.7-0.2,0.7-0.7c0-4.4,0.1-8.7,0.1-13
		c0-3.4,0-6.8,0-10.1c0-1-0.1-2.1-0.3-3.1c-0.7-3.4-2.9-4.7-6.2-3.8c-2.2,0.6-3.9,2-5.5,3.5c-0.2,0.2-0.2,0.4-0.2,0.7
		c0,8.7-0.1,17.3,0.1,25.9c0,0.5,0.2,0.7,0.7,0.7c0.9,0.1,1.8,0.2,2.7,0.2c0.4,0,0.6,0.1,0.6,0.6c0.1,1.7,0.1,1.7-1.5,1.7
		c-5.8,0-11.7,0-17.4,0c-0.7,0-0.9-0.1-0.9-0.9c0.1-1.3,0-1.3,1.3-1.4c0.9-0.1,1.8-0.2,2.8-0.2c0.5,0,0.6-0.2,0.6-0.6
		c0.1-6.7,0.2-13.4,0.1-20.1c-0.1-2.8-0.1-5.5-0.2-8.2c0-0.6-0.2-0.7-0.8-0.8c-1.3-0.1-2.5-0.2-3.8-0.4c-0.2,0-0.7,0.1-0.6-0.4
		c0.1-0.4-0.4-1.1,0.4-1.4c2.1-0.6,4.3-1.2,6.4-1.8c2.5-0.7,5-1.5,7.6-2.2c0.7-0.2,1.4,0.2,1.5,1C359.2,383.2,359.3,385,359.5,387z"
		/>
	<path fill="#A5241A" d="M429.9,387c1.5-1.7,2.9-3.1,4.5-4.2c3.4-2.3,7.1-3.1,11.1-2.3c4.3,0.9,6.6,3.9,7.6,7.9
		c0.4,1.7,0.6,3.4,0.6,5.2c0,7.4-0.1,14.7,0.1,22c0,0.7,0.2,0.9,0.9,0.9c0.9,0.1,1.8,0.1,2.7,0.2c0.4,0,0.6,0.1,0.6,0.6
		c0,1.6,0.1,1.6-1.6,1.6c-5.9,0-11.7,0-17.6,0c-0.7,0-0.8-0.2-0.8-0.8c0.1-1.3,0-1.3,1.4-1.5c0.8-0.1,1.6-0.2,2.4-0.2
		c0.5,0,0.6-0.2,0.6-0.7c0-4.4,0.1-8.7,0.1-13c0-3.6,0-7.2,0-10.7c0-0.9-0.1-1.8-0.2-2.6c-0.6-3.2-2.6-4.5-5.8-3.9
		c-2.5,0.6-4.4,2-6.3,3.6c-0.2,0.2-0.2,0.4-0.2,0.6c0,8.7-0.1,17.4,0.1,26.1c0,0.4,0.1,0.6,0.6,0.6c0.9,0.1,1.8,0.2,2.8,0.2
		c0.4,0,0.6,0.2,0.6,0.6c0,1.6,0.1,1.6-1.5,1.6c-5.9,0-11.7,0-17.6,0c-0.6,0-0.8-0.1-0.8-0.7c0.1-1.4,0-1.4,1.4-1.5
		c0.9-0.1,1.8-0.2,2.6-0.2c0.5,0,0.7-0.2,0.7-0.7c0-3.9,0.1-7.8,0.1-11.7c0-5.5,0.1-11-0.2-16.5c0-0.5-0.1-0.8-0.7-0.8
		c-1.3-0.1-2.6-0.2-3.9-0.4c-0.2,0-0.7,0.1-0.6-0.4c0.1-0.5-0.4-1.2,0.4-1.4c4.7-1.4,9.4-2.8,14.1-4.1c0.6-0.2,1.4,0.4,1.4,1
		C429.6,383.2,429.8,385,429.9,387z"/>
	<path fill="#A5241A" d="M248.7,413.1c-1.6,1.9-3.3,3.5-5.3,4.7c-2.9,1.8-6.1,2.6-9.6,2.1c-4.2-0.6-7.1-3.3-8.2-7.8
		c-0.5-2-0.6-4.1-0.6-6.1c0.1-6.6,0.2-13.1,0.3-19.6c0-0.7-0.2-0.9-0.9-1c-1.2-0.2-2.3-0.5-3.4-0.7c-0.4-0.1-0.6-0.2-0.6-0.7
		c0-1.4,0-1.3,1.3-1.5c4.5-0.6,9-1.2,13.5-1.8c0.9-0.1,1.5,0.4,1.4,1.3c-0.5,8.3-0.4,16.7-0.4,25c0,1.1,0.1,2.3,0.4,3.4
		c0.7,2.7,2.7,4.1,5.5,3.8c2.5-0.2,4.5-1.4,6.4-3.1c0.3-0.2,0.2-0.6,0.2-0.9c0.1-7.1,0.1-14.1,0.2-21.1c0-1,0-2,0.1-2.9
		c0-0.6-0.1-0.8-0.7-0.9c-1.2-0.2-2.3-0.5-3.4-0.6c-0.8-0.1-0.5-0.7-0.6-1.1s0.1-0.6,0.6-0.6c4.7-0.7,9.3-1.5,14-2.3
		c0.7-0.1,1.3,0.5,1.2,1.3c-0.4,10.8-0.2,21.7-0.2,32.5c0,0.5,0.1,0.9,0,1.4c-0.1,0.6,0.1,0.8,0.7,0.8c1,0,2,0.2,2.9,0.2
		c0.5,0,0.7,0.1,0.7,0.7c0,1.5,0,1.4-1.5,1.5c-4.3,0.2-8.6,0.5-13,0.8c-0.7,0.1-0.8-0.2-0.8-0.7c-0.1-1.5-0.1-3.1-0.2-4.6
		C248.8,414,248.9,413.6,248.7,413.1z"/>
	<path fill="#A5241A" d="M323.9,413.2c-0.7,0.7-1.3,1.4-1.9,2c-2.4,2.3-5.1,4-8.3,4.7c-2.3,0.4-4.5,0.3-6.7-0.4
		c-3.5-1.2-5.3-3.9-6.1-7.3c-0.5-2-0.6-4-0.6-6.1c0.1-6.5,0.2-13.1,0.3-19.6c0-0.7-0.2-1-0.9-1.1c-1.1-0.1-2.1-0.4-3.3-0.6
		c-0.5-0.1-0.7-0.2-0.7-0.9c0.1-1.2,0-1.2,1.2-1.4c4.5-0.6,9-1.2,13.5-1.8c0.9-0.1,1.5,0.4,1.4,1.2c-0.4,8.3-0.4,16.6-0.4,24.9
		c0,1.2,0.1,2.3,0.4,3.5c0.7,2.8,2.7,4.1,5.5,3.9c2.5-0.2,4.5-1.4,6.3-3c0.2-0.2,0.2-0.4,0.2-0.7c0.1-8.1,0.2-16.3,0.3-24.4
		c0-0.4-0.1-0.7-0.6-0.7c-1.2-0.2-2.4-0.5-3.6-0.7c-0.7-0.1-0.4-0.7-0.4-1c-0.1-0.3,0-0.6,0.4-0.7c4.7-0.7,9.5-1.5,14.2-2.3
		c0.6-0.1,1.2,0.6,1.2,1.2c-0.1,2.9-0.2,5.8-0.2,8.8c-0.1,8.5-0.1,17-0.1,25.5c0,0.4,0.1,0.6,0.5,0.6c1.1,0.1,2.1,0.2,3.3,0.2
		c0.4,0,0.6,0.1,0.6,0.6c0,1.5,0.1,1.5-1.5,1.6c-4.4,0.2-8.7,0.5-13,0.8c-0.5,0.1-0.6-0.1-0.7-0.6c-0.1-1.7-0.1-3.4-0.2-5.1
		C324,413.9,324.1,413.5,323.9,413.2z"/>
	<path fill="#A5241A" d="M583.3,383.4c-0.3,0.1-0.4,0.4-0.5,0.6c-2.3,3.4-5,6.5-8.2,9.1c-0.2,0.2-0.4,0.5-0.7,0.4
		c-0.4-0.2-0.7-0.3-0.4-0.9c3.6-7,6.1-14.4,7.5-22.2c0.6-3.2,0.9-6.4,0.9-9.6c0-0.1,0-0.3,0-0.5c2.3,0.6,4.5,1.2,6.8,1.8
		c1.5,0.4,3,0.9,4.5,1.2c0.5,0.1,0.6,0.3,0.3,0.7c-0.4,0.6-1,1-1.7,1c-0.6,0-0.8,0.4-0.9,0.9c-1,3.4-2.2,6.7-3.6,9.9
		c-0.4,0.8-0.3,0.8,0.6,0.8c3.8,0,7.6,0,11.4,0c0.5,0,0.7-0.1,1-0.6c1-1.5,2-2.9,3.1-4.4c0.7-0.9,0.9-0.9,1.8-0.2
		c2.1,1.5,4,3.1,5.7,5.1c0.3,0.3,0.7,0.7,0.4,1.2c-0.2,0.6-0.7,0.8-1.3,0.8c-1.2,0.1-2.4,0.1-3.6,0c-0.7-0.1-0.9,0.2-0.9,0.8
		c-0.7,5.1-1.8,10.1-3.6,15c-1.5,4.2-3.3,8.3-5.8,12c-0.2,0.4-0.2,0.6,0.1,1c4.4,4.4,9.5,7.6,15.2,9.8c0.2,0.1,0.7,0,0.7,0.6
		c0,0.6-0.4,0.6-0.8,0.7c-3,1-5,3-5.9,6c-0.1,0.2-0.1,0.5-0.2,0.7c-1.8-1-3.5-2.1-5.1-3.4c-3.2-2.5-5.9-5.6-8-9.1
		c-0.3-0.5-0.4-0.6-0.9-0.1c-5,5.5-11,9.3-17.7,12.3c-0.4,0.1-0.6,0.2-0.9-0.2c-0.3-0.5,0.2-0.6,0.4-0.7
		c6.4-4.5,11.7-10.1,15.6-16.8c0.2-0.4,0.3-0.7,0.1-1.1c-2.3-5.5-3.7-11.3-4.6-17.2C583.8,387,583.6,385.2,583.3,383.4z
		 M591.6,401.3c3.1-7.2,4.7-14.7,5.5-22.4c0.1-0.5-0.2-0.5-0.6-0.5c-3.3,0-6.6,0-9.9,0c-0.4,0-0.6,0.1-0.8,0.5
		c-0.4,0.7-0.7,1.4-1.1,2c-0.2,0.4-0.3,0.8-0.2,1.3c0.9,4.2,2,8.4,3.7,12.5C589,396.9,590.1,399.1,591.6,401.3z"/>
	<path fill="#A5241A" d="M552.3,368.1c2.5,0.6,4.8,1.1,7.1,1.8c0.3,0.1,0.6,0.2,0.8,0.3c0.4,0.2,1,0.3,1,0.9
		c0.1,0.5-0.6,0.7-0.9,0.9c-0.4,0.2-0.5,0.4-0.5,0.8c0,9.8,0,19.6,0,29.5c0,0.5,0.1,0.6,0.6,0.5c1.4-0.4,2.8-0.7,4.2-0.9
		c0.5-0.1,0.6-0.3,0.6-0.8c0-9.8,0-19.6-0.1-29.5c0-3.5-0.3-6.9-0.9-10.5c0.9,0.2,1.7,0.4,2.5,0.6c2,0.5,3.9,0.9,5.8,1.6
		c0.2,0.1,0.3,0.1,0.5,0.2c0.4,0.2,1.1,0.3,1.2,0.9s-0.6,0.7-1,1c-0.6,0.3-0.7,0.7-0.7,1.3c0,13.9,0,27.7,0.1,41.6
		c0,4.4,0.2,8.8,0.5,13.2c0,0.4-0.1,0.8-0.4,1c-1.8,1.7-4,2.6-6.6,2.5c-1.2-0.1-1.5-0.6-1.4-1.7c0.4-6,0.6-12,0.5-18
		c0-0.2,0-0.6,0-0.8c-0.4,0-0.5,0.2-0.7,0.4c-3.2,2.6-6.5,5.1-9.9,7.4c-0.4,0.2-0.7,0.6-0.9,1c-0.1,0.2-0.2,0.4-0.4,0.6
		c-0.7,0.9-1.1,0.9-1.5-0.2c-1.1-2.5-2.2-5.1-3.3-7.6c-0.2-0.6-0.1-0.7,0.4-0.8c1.2-0.2,2.3-0.4,3.4-0.6c0.6-0.1,0.7-0.3,0.7-0.9
		c0-3.7,0-7.5,0-11.2c0-5.2,0.1-10.4-0.1-15.7c-0.1-2.7-0.3-5.4-0.7-8C552.3,368.6,552.3,368.4,552.3,368.1z"/>
	<path fill="#A5241A" d="M206.1,418.9c-3.7,0-7.4,0-11,0c-0.6,0-0.7-0.1-0.7-0.7c0-1.7,0-1.7,1.7-1.8c1.3-0.1,2.6-0.3,3.9-0.4
		c0.4-0.1,0.5-0.2,0.4-0.6c-1.3-4.1-2.6-8.2-3.9-12.3c-0.1-0.4-0.3-0.5-0.7-0.5c-4.9,0-9.8,0-14.7,0c-0.4,0-0.6,0.2-0.7,0.6
		c-1.2,4-2.3,8-3.4,11.9c-0.2,0.6,0.1,0.6,0.5,0.7c1.7,0.2,3.4,0.5,5.2,0.7c0.5,0.1,0.7,0.2,0.7,0.8c0,1.7,0,1.7-1.7,1.7
		c-4.5,0-9,0-13.4,0c-0.6,0-0.7-0.1-0.7-0.7c0.1-1.6,0-1.6,1.5-1.8c1.2-0.2,2.3-0.4,3.5-0.5c0.6-0.1,0.8-0.3,0.9-0.8
		c3.2-10,6.4-20,9.6-30c1.8-5.7,3.7-11.4,5.5-17.1c0.2-0.6,0.4-0.7,0.9-0.7c1.9,0,3.8,0.1,5.8,0c0.6,0,0.8,0.2,1,0.7
		c5.1,15.1,10.3,30.2,15.3,45.3c0.2,0.6,0.4,1,0.6,1.6c0.1,0.9,0.7,1.2,1.5,1.2c1.4,0.1,2.6,0.3,3.9,0.4c0.4,0.1,0.4,0.2,0.4,0.5
		c0.1,1.9,0.1,1.9-1.8,1.9C212.8,418.9,209.4,418.9,206.1,418.9z M195.5,400.2c-2.5-7.8-5-15.5-7.5-23.4c-2.3,7.9-4.6,15.7-6.9,23.4
		C186,400.2,190.7,400.2,195.5,400.2z"/>
	<path fill="#A5241A" d="M490.6,400.2c-1.2,1.5-2.4,3-3.6,4.5c-1.9,2.3-4,4.4-6.2,6.3c-0.3,0.2-0.5,0.4-0.8,0
		c-0.2-0.2-0.5-0.4-0.2-0.8c4.2-6.2,6.7-13,8.6-20.2c0.5-2,1-4,1.4-6c0.1-0.5,0.1-0.6-0.5-0.6c-2.4-0.1-4.8,0.1-7.1,0.9
		c-0.3,0.1-0.4,0.1-0.6-0.2c-0.5-1-1-2-1.5-3.1c1.2,0.1,2.3,0.2,3.4,0.3c2.1,0.2,4.2,0.2,6.3,0.2c0.5,0,0.7-0.1,0.7-0.7
		c-0.1-2.9,0-5.8,0-8.7c0-0.4-0.1-0.6-0.6-0.6c-2.9,0.4-5.8,0.8-8.8,1c-0.2,0-0.6,0.2-0.7-0.2c-0.1-0.4-0.1-0.6,0.4-0.8
		c4.1-1.7,7.9-3.6,11.7-5.8c2.6-1.5,5.1-3.1,7.4-5c0.3-0.2,0.5-0.2,0.8,0.1c2.6,2.3,5.2,4.6,7.8,6.9c0.5,0.4,0.4,0.6-0.1,0.8
		c-1,0.4-2,0.3-2.9,0c-0.6-0.2-1.2-0.1-1.8,0.1c-1.6,0.5-3.3,0.9-4.9,1.4c-0.5,0.1-0.7,0.3-0.7,0.9c0,3.3,0,6.7,0,10
		c0,0.2-0.2,0.7,0.2,0.8c0.5,0,1.1,0.3,1.5-0.3c0.6-1,1.2-2.1,1.9-3.1c1.4-2,1.3-2,3.2-0.4c1.2,1.1,2.5,2.3,3.4,3.6
		c0.3,0.4,0.7,0.8,0.5,1.4c-0.3,0.7-0.9,0.8-1.5,0.8c-1.5,0-3.1,0-4.7,0c-1.3,0-2.6,0.1-3.9,0c-0.6,0-0.7,0.2-0.7,0.7
		c0.1,1.4,0.1,2.8,0,4.2c0,0.5,0.1,0.7,0.6,0.9c2.7,1.2,5.2,2.6,7.1,5c1.4,1.8,2,3.7,1.4,5.9c-0.4,1.3-1.2,2.2-2.5,2.5
		c-1.4,0.3-2.4-0.3-3.3-1.1c-0.2-0.2-0.2-0.6-0.2-0.8c-0.2-3.3-1.3-6.3-2.8-9.2c-0.2,0.2-0.1,0.4-0.1,0.6c0,8.1-0.1,16.3,0.3,24.4
		c0.1,1.8,0.2,3.6,0.2,5.3c0,0.5-0.1,0.8-0.5,1.1c-2,1.7-4.4,2.2-6.9,2c-1.1-0.1-1.4-0.6-1.4-1.7c0.4-7.4,0.7-14.8,0.6-22.2
		C490.6,400.7,490.6,400.4,490.6,400.2z"/>
	<path fill="#A5241A" d="M527.3,389.7c2.6-4.7,4.6-9.5,5.8-14.7c0.2-0.9,0.2-0.9,1-0.4c2.3,1.3,4.6,2.6,6.8,4.1
		c0.4,0.3,0.8,0.6,1.1,1c0.3,0.4,0.2,0.7-0.2,0.9c-0.1,0-0.1,0.1-0.1,0.1c-1.3,0-2,0.9-2.8,1.8c-3.3,3.4-6.8,6.6-10.7,9.3
		c-0.2,0.2-0.4,0.2-0.3,0.6c1.4,5.5,3.2,10.7,6.7,15.3c2.3,2.9,5,5.3,8.2,7.1c0.2,0.1,0.6,0.2,0.6,0.7c-0.1,0.4-0.4,0.5-0.7,0.6
		c-2.9,1-4.6,3.1-5.6,5.9c-0.4,1-0.6,2-0.8,2.9c-0.4,0.1-0.5-0.2-0.7-0.4c-2.8-2.7-4.7-6-6.1-9.6c-1.7-4.4-2.7-9-3.4-13.6
		c-0.7-4.4-1.1-8.8-1.4-13.3c-0.2,1.7-0.4,3.5-0.7,5.2c-0.9,6.4-2.5,12.5-6.2,17.9c-3.6,5.2-8.3,9-13.8,12c-1.1,0.6-2.3,1.1-3.3,1.7
		c-0.6,0.4-0.7-0.2-0.9-0.4c-0.3-0.4-0.1-0.6,0.2-0.8c4.7-3.3,8.5-7.2,11.5-12.2c2.6-4.4,4.1-9.2,4.9-14.2
		c1.4-9.1,1.7-18.3,1.2-27.4c-0.1-2.8-0.2-5.6-0.6-8.4c-0.1-0.3-0.1-0.6,0.4-0.5c2.8,0.3,5.7,0.5,8.5,1.2c0.1,0,0.1,0.1,0.2,0.1
		c0.3,0.1,0.7,0.1,0.7,0.5c0.1,0.4-0.2,0.6-0.6,0.7c-1,0.4-1.1,1.2-1.1,2.2c0.3,7.9,0.7,15.8,2.1,23.6
		C527.2,389.2,527.2,389.4,527.3,389.7z"/>
	<path fill="#A5241A" d="M283.8,398c0,3.9,0,7.8,0,11.7c0,0.7,0,1.5,0.2,2.2c0.6,2.8,2.9,4.2,5.6,3.3c1.1-0.3,2.1-0.9,3-1.7
		c0.3-0.2,0.6-0.3,0.8,0c0.2,0.4,1,0.4,0.6,1.2c-1.9,3.1-4.7,4.7-8.2,5.2c-2,0.2-3.9,0.2-5.8-0.2c-4.1-0.9-6.6-3.7-7.1-7.9
		c-0.4-3.3-0.1-6.4-0.1-9.7c0-5.8,0-11.5,0-17.3c0-0.6-0.1-0.7-0.7-0.7c-1.4,0.1-2.8,0-4.3,0c-0.5,0-0.6-0.1-0.6-0.6
		c0-1.6,0-1.6,1.6-1.8c1.4-0.1,2.7-0.3,4.1-0.4c0.4-0.1,0.6-0.2,0.7-0.6c1-3.3,2.1-6.6,3.2-9.9c0.1-0.4,0.3-0.7,0.9-0.7
		c2,0.1,3.9,0.1,5.8,0c0.5,0,0.7,0.1,0.6,0.7c-0.1,3.3-0.1,6.5-0.1,9.7c0,0.6,0.1,0.7,0.7,0.7c2.4-0.1,4.8,0,7.1,0
		c0.5,0,0.7,0.1,0.7,0.7c-0.1,0.6-0.1,1.1,0,1.6c0.1,0.4-0.1,0.6-0.6,0.6c-2.4,0-4.8,0-7.2,0c-0.6,0-0.7,0.2-0.7,0.7
		C283.8,389.2,283.8,393.7,283.8,398z"/>
	<path fill="#A5241A" d="M513.8,384.3c-0.1,2-0.3,3.9-1.2,5.8c-0.4,0.8-0.8,1.5-1.4,2.1c-1.3,1.5-3.4,1.9-5.2,1.1
		c-1.8-0.9-2.5-3.2-1.5-5.2c0.4-0.8,1-1.4,1.7-2c3.1-2.6,4.6-6,5.1-9.9c0-0.2-0.2-0.6,0.3-0.7c0.4,0,0.7,0.1,0.8,0.6
		C513.3,378.8,513.8,381.4,513.8,384.3z"/>
</g>
</svg>
